<svg height="76.152" id="main-logo" viewBox="0 0 174 76.152" width="174" xmlns="http://www.w3.org/2000/svg">
<g transform="translate(-534.297 -328.371)">
<rect data-name="Rectangle 4" fill="#fff" height="2.15" id="Rectangle_4" transform="translate(574.497 353.737)" width="2.15"></rect>
<rect data-name="Rectangle 5" fill="#fff" height="16.928" id="Rectangle_5" transform="translate(574.497 357.982)" width="2.15"></rect>
<path d="M572.795,349.033h2.15v4.245h8.438v2.15h-8.438v10.533a2.078,2.078,0,0,0,2.1,2.15h6.342v2.1H577.04a4.254,4.254,0,0,1-4.245-4.246V355.428h-3.171v-2.15h3.171Z" data-name="Path 1" fill="#fff" id="Path_1" transform="translate(8.043 4.704)"></path>
<path d="M566.453,358.873H552.319a4.085,4.085,0,0,1,1.182-3.225,3.986,3.986,0,0,1,2.043-.859,22.213,22.213,0,0,1,3.868-.269,23.149,23.149,0,0,1,3.87.269,4.2,4.2,0,0,1,2.043.859,3.9,3.9,0,0,1,1.128,3.225m-14.134,2.15h16.552a19.889,19.889,0,0,0-.323-4.191,6.252,6.252,0,0,0-1.128-2.418,5.33,5.33,0,0,0-2.687-1.666,24.661,24.661,0,0,0-5.373-.431,25.258,25.258,0,0,0-5.429.431,4.966,4.966,0,0,0-2.633,1.666,5.029,5.029,0,0,0-1.128,2.418,23.192,23.192,0,0,0-.376,4.191,22.5,22.5,0,0,0,.376,4.138,5.034,5.034,0,0,0,1.128,2.418,4.68,4.68,0,0,0,2.633,1.666,22.215,22.215,0,0,0,5.429.43,21.7,21.7,0,0,0,5.373-.43,5,5,0,0,0,2.687-1.666,5.424,5.424,0,0,0,.967-1.828h-2.525a5.93,5.93,0,0,1-.538.646,4.783,4.783,0,0,1-2.043.859,24.275,24.275,0,0,1-3.87.215,23.418,23.418,0,0,1-3.868-.215,4.5,4.5,0,0,1-2.043-.859,3.8,3.8,0,0,1-1.128-2.687c-.054-.861-.054-1.774-.054-2.687" data-name="Path 2" fill="#fff" id="Path_2" transform="translate(3.528 5.451)"></path>
<path d="M572.4,404.523a38.076,38.076,0,1,0-19.025-71.047l2.1,3.655a33.484,33.484,0,0,1,16.928-4.514,33.857,33.857,0,1,1-33.858,33.858H534.3a38.1,38.1,0,0,0,38.1,38.049" data-name="Path 3" fill="#fff" id="Path_3" transform="translate(0 0)"></path>
<path d="M570.825,394.512a29.544,29.544,0,0,0,25.635-14.833l-3.655-2.1a25.393,25.393,0,1,1,0-25.42l3.655-2.1a29.614,29.614,0,1,0-25.635,44.445" data-name="Path 4" fill="#fff" id="Path_4" transform="translate(1.575 1.575)"></path>
<path d="M604.982,369.42h2.256v-7.792h15.585v7.792h2.258V352.492h-2.258v7.147H607.238v-7.147h-2.256Zm35.255-3.6h1.935a3.127,3.127,0,0,1-1.451,2.9c-.967.592-2.633.861-5.052.861a31.8,31.8,0,0,1-4.461-.215,5.529,5.529,0,0,1-2.311-.807q-1.773-1.21-1.773-5a7.71,7.71,0,0,1,.751-3.924,3.664,3.664,0,0,1,2.043-1.666,15.085,15.085,0,0,1,4.568-.484,20.281,20.281,0,0,1,4.353.323,4.08,4.08,0,0,1,3.117,3.063,18.206,18.206,0,0,1,.268,3.063H629.112a4.454,4.454,0,0,0,.861,3.01,3.215,3.215,0,0,0,1.719.805,30.92,30.92,0,0,0,3.817.162,18.122,18.122,0,0,0,2.9-.162,2.456,2.456,0,0,0,1.4-.7,2.064,2.064,0,0,0,.43-1.236m-.108-3.439a2.808,2.808,0,0,0-.913-2.418,3.7,3.7,0,0,0-1.666-.645,21.926,21.926,0,0,0-3.117-.162,17.948,17.948,0,0,0-2.794.162,3.561,3.561,0,0,0-1.451.59,3.325,3.325,0,0,0-1.021,2.473Zm5.75-1.182h-1.935v-.484a2.473,2.473,0,0,1,1.4-2.527c.915-.484,2.635-.7,5.214-.7a25.826,25.826,0,0,1,4.3.269,3.925,3.925,0,0,1,2.042,1.075,2.445,2.445,0,0,1,.807,1.451,16.435,16.435,0,0,1,.215,2.955v6.18h-1.881l.054-1.343h-.108a3.33,3.33,0,0,1-1.666,1.236,17.5,17.5,0,0,1-3.655.269,37.488,37.488,0,0,1-4.3-.162,3.851,3.851,0,0,1-1.827-.591,2.625,2.625,0,0,1-.859-1.075,5.1,5.1,0,0,1-.269-1.773,5.632,5.632,0,0,1,.376-2.1,2.455,2.455,0,0,1,1.236-1.074,14.784,14.784,0,0,1,4.406-.376,29.356,29.356,0,0,1,4.73.215,2.477,2.477,0,0,1,1.72,1.02h.161v-1.235a3.574,3.574,0,0,0-.538-2.258,2.557,2.557,0,0,0-1.505-.807,16.63,16.63,0,0,0-3.332-.215,14.223,14.223,0,0,0-3.87.323,1.534,1.534,0,0,0-.913,1.558Zm4.783,2.848c-1.558,0-2.633.054-3.224.107a4.8,4.8,0,0,0-1.29.269,1.81,1.81,0,0,0-.752,1.612,1.575,1.575,0,0,0,.86,1.559,18.737,18.737,0,0,0,4.783.323,12.338,12.338,0,0,0,3.922-.377,1.46,1.46,0,0,0,.967-1.558,1.5,1.5,0,0,0-1.074-1.505,13.676,13.676,0,0,0-4.193-.43m9.244,5.374h1.881V352.492h-1.881Zm5.8-11.77h-2.9v1.613h2.9v5.7a18.125,18.125,0,0,0,.107,2.1,2.976,2.976,0,0,0,.538,1.182,2.723,2.723,0,0,0,1.612,1.021,10.451,10.451,0,0,0,2.956.323,10.287,10.287,0,0,0,2.9-.323,2.818,2.818,0,0,0,1.558-1.128,3.705,3.705,0,0,0,.484-1.236,17.743,17.743,0,0,0,.108-2.043V364.1h-1.828v.751c0,.7-.053,1.236-.053,1.505a1.61,1.61,0,0,1-.323.753,1.479,1.479,0,0,1-.859.645,7.518,7.518,0,0,1-1.828.162,9.663,9.663,0,0,1-2.042-.162,1.725,1.725,0,0,1-1.021-.591,1.975,1.975,0,0,1-.377-.753c-.053-.269-.053-.913-.107-2.043v-5.1h8.276v-1.613h-8.276v-2.9h-1.827Zm11.876-5.159h1.881v6.933h.108a3.111,3.111,0,0,1,1.881-1.505,14.522,14.522,0,0,1,4.138-.43,15.385,15.385,0,0,1,3.654.323,3.308,3.308,0,0,1,1.935.967,3.579,3.579,0,0,1,.807,1.558,16.948,16.948,0,0,1,.215,2.956v6.126h-1.881v-5.536a24.323,24.323,0,0,0-.108-2.525,2.674,2.674,0,0,0-.536-1.182,2.719,2.719,0,0,0-1.451-.807,13.261,13.261,0,0,0-2.9-.215,13.614,13.614,0,0,0-3.332.323,3.162,3.162,0,0,0-1.828.967,3.238,3.238,0,0,0-.591,1.128,12.408,12.408,0,0,0-.108,2.31v5.536h-1.881Z" data-name="Path 5" fill="#fff" id="Path_5" transform="translate(16.092 5.491)"></path>
</g>
</svg>